<?xml version="1.0" standalone="no"?><!DOCTYPE svg PUBLIC "-//W3C//DTD SVG 1.1//EN" "http://www.w3.org/Graphics/SVG/1.1/DTD/svg11.dtd"><svg t="1744639392958" class="icon" viewBox="0 0 1024 1024" version="1.1" xmlns="http://www.w3.org/2000/svg" p-id="37780" xmlns:xlink="http://www.w3.org/1999/xlink" width="200" height="200"><path d="M809.224 511.998l-14.998-286.83a12 12 0 0 0-11.984-11.374h-109.144a12 12 0 0 0-12 12v54.27h-82.834v-54.27a12 12 0 0 0-12-12h-108.532a12 12 0 0 0-12 12v54.27h-82.832v-54.27a12 12 0 0 0-12-12h-109.146a12 12 0 0 0-11.984 11.374L214.774 512v143.994H809.222v-143.996z" fill="#FFBC86" p-id="37781"></path><path d="M768.24 213.796h-28.612l15.594 298.202v143.996h40v-143.996l-14.998-286.83a12 12 0 0 0-11.984-11.372zM564.264 280.066v-54.27a12 12 0 0 0-12-12h-28v66.27h40zM348.9 280.066v-54.27a12 12 0 0 0-12-12h-28v66.27h40z" fill="#FFA65C" p-id="37782"></path><path d="M959.296 1008.984c0-36.596-29.666-66.262-66.262-66.262h-3.902l-28.478-419.54a12 12 0 0 0-11.972-11.188h-142.452a12 12 0 0 0-12 12v54.27h-99.4v-54.27a12 12 0 0 0-12-12h-141.666a12 12 0 0 0-12 12v54.27H329.762v-54.27a12 12 0 0 0-12-12H175.31a12 12 0 0 0-11.972 11.188l-28.472 419.54H128.762c-36.596 0-66.262 29.666-66.262 66.262h896.796z" fill="#FFD3AF" p-id="37783"></path><path d="M315.764 578.264v-54.27a12 12 0 0 0-12-12h-28v66.27h40zM580.83 578.264v-54.27a12 12 0 0 0-12-12h-28v66.27h40zM879.034 942.722h-3.902l-28.476-419.54a12 12 0 0 0-11.972-11.188h-28.786l29.236 430.728h3.902c36.596 0 66.262 29.666 66.262 66.262h40c-0.002-36.596-29.668-66.262-66.264-66.262z" fill="#FFBC86" p-id="37784"></path><path d="M412.6 1008.996v-198.806c0-54.896 44.502-99.398 99.398-99.398 54.896 0 99.398 44.502 99.398 99.398v198.806h-198.796z" fill="#FFA65C" p-id="37785"></path><path d="M497.998 710.792c-6.746 0-13.332 0.68-19.7 1.96 45.458 9.142 79.698 49.288 79.698 97.438v198.806h39.402v-198.806c-0.002-54.896-44.504-99.398-99.4-99.398z" fill="#FF8A4C" p-id="37786"></path><path d="M512 114.398V14.996l115.966 49.7z" fill="#FF5383" p-id="37787"></path><path d="M442.014 412.596h-75.396a12 12 0 0 1-12-12v-42.264a12 12 0 0 1 12-12h75.396a12 12 0 0 1 12 12v42.264a12 12 0 0 1-12 12zM657.934 412.596h-75.396a12 12 0 0 1-12-12v-42.264a12 12 0 0 1 12-12h75.396a12 12 0 0 1 12 12v42.264a12 12 0 0 1-12 12z" fill="#FFA65C" p-id="37788"></path><path d="M428.014 412.596h-28v-66.264h28a12 12 0 0 1 12 12v42.264a12 12 0 0 1-12 12zM643.932 412.596h-28v-66.264h28a12 12 0 0 1 12 12v42.264a12 12 0 0 1-12 12z" fill="#FF8A4C" p-id="37789"></path><path d="M1008.996 993.986h-36.108c-6.448-34.398-34.624-61.21-69.692-65.606L874.862 510.978a14.998 14.998 0 0 0-14.964-13.984h-36.438l-14.848-283.98a15 15 0 0 0-14.98-14.216h-132.534a14.998 14.998 0 0 0-15 15v51.27h-52.832v-51.27c0-8.286-6.714-15-15-15h-51.268V124.288l106.876-45.804a15 15 0 0 0 0-27.576L517.908 1.208 517.886 1.2a14.862 14.862 0 0 0-1.614-0.576c-0.162-0.048-0.326-0.084-0.488-0.126a15.792 15.792 0 0 0-1.804-0.356 15.762 15.762 0 0 0-1.026-0.098 13.98 13.98 0 0 0-0.708-0.036c-0.086 0.002-0.164-0.008-0.246-0.008-0.29 0-0.572 0.028-0.856 0.044-0.194 0.012-0.39 0.01-0.584 0.03a14.908 14.908 0 0 0-1.654 0.25c-0.102 0.022-0.2 0.054-0.3 0.078a15.826 15.826 0 0 0-1.342 0.374c-0.164 0.054-0.326 0.118-0.488 0.178a14.26 14.26 0 0 0-1.612 0.706 14.46 14.46 0 0 0-1.124 0.644c-0.096 0.06-0.2 0.106-0.296 0.17l-0.07 0.054a15.046 15.046 0 0 0-1.31 0.986c-0.146 0.122-0.278 0.254-0.418 0.382a14.87 14.87 0 0 0-1.234 1.254c-0.248 0.284-0.484 0.58-0.71 0.884-0.106 0.142-0.218 0.282-0.32 0.428a15.04 15.04 0 0 0-0.882 1.422l-0.016 0.034a15.24 15.24 0 0 0-0.694 1.5c-0.056 0.138-0.102 0.28-0.154 0.42a14.59 14.59 0 0 0-0.75 2.946c-0.024 0.162-0.054 0.32-0.074 0.482a15.2 15.2 0 0 0-0.108 1.716l-0.002 0.016v183.798h-51.266a14.998 14.998 0 0 0-15 15v51.27H377.902v-51.27c0-8.286-6.714-15-15-15h-132.536a15 15 0 0 0-14.98 14.216l-3.792 72.538a15.002 15.002 0 0 0 14.198 15.764c8.24 0.446 15.33-5.924 15.764-14.198l3.048-58.32h103.298v36.27h-9.852a14.998 14.998 0 0 0-15 15c0 8.286 6.714 15 15 15h132.534c8.286 0 15-6.714 15-15s-6.714-15-15-15h-9.85v-36.27h51.226l0.038 0.002 0.038-0.002h51.23v36.27h-9.296a14.998 14.998 0 0 0-15 15c0 8.286 6.714 15 15 15H686.5c8.286 0 15-6.714 15-15s-6.714-15-15-15h-10.402v-36.27h103.296l14.022 268.198h-99.186a14.998 14.998 0 0 0-15 15v51.268h-69.4v-51.268c0-8.286-6.714-15-15-15h-165.664a14.998 14.998 0 0 0-15 15v51.268h-69.402v-51.268c0-8.286-6.714-15-15-15H230.582l7.834-149.876a15.002 15.002 0 0 0-14.198-15.764c-8.254-0.42-15.328 5.924-15.764 14.198l-7.916 151.444H164.096a15 15 0 0 0-14.964 13.984L120.822 928.116c-36.096 3.516-65.33 30.748-71.912 65.87H15.004c-8.284 0-15 6.714-15 15s6.714 15 15 15h397.402c0.066 0 0.128 0.01 0.194 0.01s0.128-0.008 0.194-0.01h198.41c0.066 0 0.128 0.01 0.194 0.01s0.128-0.008 0.194-0.01h397.404c8.286 0 15-6.714 15-15s-6.716-15-15-15zM527 91.65V37.744l62.888 26.954-62.888 26.952zM128.76 957.722h5.832c0.096 0.002 0.192 0.01 0.286 0.01 0.068 0 0.134-0.008 0.202-0.01h93.082c8.286 0 15-6.714 15-15s-6.714-15-15-15H150.916l27.196-400.728h36.358c0.106 0.002 0.212 0.008 0.318 0.008 0.054 0 0.106-0.008 0.16-0.008h99.814v36.268h-1.566c-8.286 0-15 6.714-15 15s6.714 15 15 15h16.528l0.038 0.002h99.402l0.038-0.002h16.524c8.286 0 15-6.714 15-15s-6.714-15-15-15h-1.562v-36.268h135.664v36.268h-1.566c-8.286 0-15 6.714-15 15s6.714 15 15 15h16.528l0.038 0.002h99.4l0.038-0.002h16.526c8.286 0 15-6.714 15-15s-6.714-15-15-15h-1.564v-36.268h99.898l0.08 0.004 0.16-0.004h36.512l27.2 400.728h-79.448c-8.286 0-15 6.714-15 15s6.714 15 15 15h99.4c23.05 0 42.59 15.294 49.02 36.264H626.398v-183.794c0-63.08-51.318-114.398-114.398-114.398S397.602 747.112 397.602 810.192v183.794H79.742c6.43-20.97 25.97-36.264 49.018-36.264z m467.638 36.264H427.602v-183.794c0-46.538 37.862-84.398 84.398-84.398s84.398 37.862 84.398 84.398v183.794z" fill="#0C0A0B" p-id="37790"></path><path d="M354.618 427.596h99.396c8.286 0 15-6.714 15-15v-66.264c0-8.286-6.714-15-15-15h-99.396a14.998 14.998 0 0 0-15 15v66.264a15 15 0 0 0 15 15z m15-66.264h69.396v36.264h-69.396v-36.264zM669.932 427.596c8.286 0 15-6.714 15-15v-66.264c0-8.286-6.714-15-15-15h-99.394a15 15 0 0 0-15 15v66.264a15 15 0 0 0 15 15h99.394z m-84.394-66.264h69.394v36.264h-69.394v-36.264z" fill="#0C0A0B" p-id="37791"></path></svg>