<?xml version="1.0" standalone="no"?><!DOCTYPE svg PUBLIC "-//W3C//DTD SVG 1.1//EN" "http://www.w3.org/Graphics/SVG/1.1/DTD/svg11.dtd"><svg t="1744553437141" class="icon" viewBox="0 0 1820 1024" version="1.1" xmlns="http://www.w3.org/2000/svg" p-id="3765" xmlns:xlink="http://www.w3.org/1999/xlink" width="355.46875" height="200"><path d="M910.13795 831.92297c-89.686511 0-160.03259 42.188686-160.032589 96.038515S820.45144 1023.905194 910.13795 1023.905194s160.03259-42.188686 160.03259-96.038515-70.346079-95.943709-160.03259-95.943709z" fill="#FFD200" p-id="3766"></path><path d="M910.13795 799.973336c-89.686511 0-160.03259 42.188686-160.032589 96.038515s70.251273 96.038515 160.032589 96.038515 160.03259-42.188686 160.03259-96.038515-70.346079-96.038515-160.03259-96.038515z" fill="#FF9600" p-id="3767"></path><path d="M910.13795 767.928895c-89.686511 0-160.03259 42.188686-160.032589 96.038515s70.251273 96.038515 160.032589 96.038515 160.03259-42.188686 160.03259-96.038515S999.824461 767.928895 910.13795 767.928895z" fill="#FFD200" p-id="3768"></path><path d="M910.13795 735.979261c-89.686511 0-160.03259 42.188686-160.032589 96.038515S820.45144 927.961485 910.13795 927.961485s160.03259-42.188686 160.03259-96.038515-70.346079-95.943709-160.03259-95.943709z" fill="#FF9600" p-id="3769"></path><path d="M910.13795 703.934821c-89.686511 0-160.03259 42.188686-160.032589 96.038515S820.45144 895.917045 910.13795 895.917045s160.03259-42.188686 160.03259-96.038515-70.346079-95.943709-160.03259-95.943709z" fill="#FFD200" p-id="3770"></path><path d="M910.13795 671.985187c-89.686511 0-160.03259 42.188686-160.032589 96.038515S820.45144 863.96741 910.13795 863.96741s160.03259-42.188686 160.03259-96.038515-70.346079-95.943709-160.03259-95.943708z" fill="#FF9600" p-id="3771"></path><path d="M910.13795 639.940746c-89.686511 0-160.03259 42.188686-160.032589 96.038515S820.45144 831.92297 910.13795 831.92297s160.03259-42.188686 160.03259-96.038515S999.824461 639.940746 910.13795 639.940746z" fill="#FFD200" p-id="3772"></path><path d="M910.13795 607.991112c-89.686511 0-160.03259 42.188686-160.032589 96.038515S820.45144 799.973336 910.13795 799.973336s160.03259-42.188686 160.03259-96.038515-70.346079-95.943709-160.03259-95.943709z" fill="#FF9600" p-id="3773"></path><path d="M910.13795 575.946672c-89.686511 0-160.03259 42.188686-160.032589 96.038515S820.45144 767.928895 910.13795 767.928895s160.03259-42.188686 160.03259-96.038514-70.346079-95.943709-160.03259-95.943709z" fill="#FFD200" p-id="3774"></path><path d="M910.13795 543.997037c-89.686511 0-160.03259 42.188686-160.032589 96.038515S820.45144 735.979261 910.13795 735.979261s160.03259-42.188686 160.03259-96.038515-70.346079-95.943709-160.03259-95.943709z" fill="#FF9600" p-id="3775"></path><path d="M910.13795 511.952597c-89.686511 0-160.03259 42.188686-160.032589 96.038515S820.45144 703.934821 910.13795 703.934821s160.03259-42.188686 160.03259-96.038515S999.824461 511.952597 910.13795 511.952597z" fill="#FFD200" p-id="3776"></path><path d="M910.13795 480.002963c-89.686511 0-160.03259 42.188686-160.032589 96.038515S820.45144 671.985187 910.13795 671.985187s160.03259-42.188686 160.03259-96.038515-70.346079-95.943709-160.03259-95.943709z" fill="#FF9600" p-id="3777"></path><path d="M910.13795 447.958522c-89.686511 0-160.03259 42.188686-160.032589 96.038515S820.45144 639.940746 910.13795 639.940746s160.03259-42.188686 160.03259-96.038515-70.346079-95.943709-160.03259-95.943709z" fill="#FFD200" p-id="3778"></path><path d="M910.13795 416.008888c-89.686511 0-160.03259 42.188686-160.032589 96.038515S820.45144 607.991112 910.13795 607.991112s160.03259-42.188686 160.03259-96.038515-70.346079-95.943709-160.03259-95.943709zM750.200167 927.961485c0 53.849829 70.251273 96.038515 160.032589 96.038515V831.92297c-89.781317 0-160.03259 42.188686-160.032589 96.038515z" fill="#FF9600" p-id="3779"></path><path d="M750.200167 895.917045c0 53.849829 70.251273 96.038515 160.032589 96.038515V799.973336c-89.781317 0-160.03259 42.09388-160.032589 95.943709z" fill="#DF8328" p-id="3780"></path><path d="M750.200167 863.96741c0 53.849829 70.251273 96.038515 160.032589 96.038515V767.928895c-89.781317 0-160.03259 42.188686-160.032589 96.038515z" fill="#FF9600" p-id="3781"></path><path d="M750.200167 831.92297c0 53.849829 70.251273 96.038515 160.032589 96.038515V735.979261c-89.781317 0-160.03259 42.09388-160.032589 95.943709z" fill="#DF8328" p-id="3782"></path><path d="M750.200167 799.973336c0 53.849829 70.251273 96.038515 160.032589 96.038515V703.934821c-89.781317 0-160.03259 42.188686-160.032589 96.038515z" fill="#FF9600" p-id="3783"></path><path d="M750.200167 767.928895c0 53.849829 70.251273 96.038515 160.032589 96.038515V671.985187c-89.781317 0-160.03259 42.09388-160.032589 95.943708z" fill="#DF8328" p-id="3784"></path><path d="M750.200167 735.979261c0 53.849829 70.251273 96.038515 160.032589 96.038515V639.940746c-89.781317 0-160.03259 42.188686-160.032589 96.038515z" fill="#FF9600" p-id="3785"></path><path d="M750.200167 735.979261c0 53.849829 70.251273 96.038515 160.032589 96.038515V639.940746c-89.781317 0-160.03259 42.188686-160.032589 96.038515z" fill="#FF9600" p-id="3786"></path><path d="M750.200167 703.934821c0 53.849829 70.251273 96.038515 160.032589 96.038515V607.991112c-89.781317 0-160.03259 42.09388-160.032589 95.943709z" fill="#DF8328" p-id="3787"></path><path d="M750.200167 671.985187c0 53.849829 70.251273 96.038515 160.032589 96.038515V575.946672c-89.781317 0-160.03259 42.188686-160.032589 96.038515z" fill="#FF9600" p-id="3788"></path><path d="M750.200167 639.940746c0 53.849829 70.251273 96.038515 160.032589 96.038515V543.997037c-89.781317 0-160.03259 42.09388-160.032589 95.943709z" fill="#DF8328" p-id="3789"></path><path d="M750.200167 607.991112c0 53.849829 70.251273 96.038515 160.032589 96.038515V511.952597c-89.781317 0-160.03259 42.188686-160.032589 96.038515z" fill="#FF9600" p-id="3790"></path><path d="M750.200167 607.991112c0 53.849829 70.251273 96.038515 160.032589 96.038515V511.952597c-89.781317 0-160.03259 42.188686-160.032589 96.038515z" fill="#FF9600" p-id="3791"></path><path d="M750.200167 575.946672c0 53.849829 70.251273 96.038515 160.032589 96.038515V480.002963c-89.781317 0-160.03259 42.09388-160.032589 95.943709z" fill="#DF8328" p-id="3792"></path><path d="M750.200167 543.997037c0 53.849829 70.251273 96.038515 160.032589 96.038515V447.958522c-89.781317 0-160.03259 42.188686-160.032589 96.038515z" fill="#FF9600" p-id="3793"></path><path d="M750.200167 511.952597c0 53.849829 70.251273 96.038515 160.032589 96.038515V416.008888c-89.781317 0-160.03259 42.09388-160.032589 95.943709z" fill="#DF8328" p-id="3794"></path><path d="M750.200167 480.002963c0 53.849829 70.251273 96.038515 160.032589 96.038515V383.964448c-89.781317 0-160.03259 42.188686-160.032589 96.038515z" fill="#FF9600" p-id="3795"></path><path d="M910.13795 383.964448c-89.686511 0-160.03259 42.188686-160.032589 96.038515S820.45144 575.946672 910.13795 575.946672s160.03259-42.188686 160.03259-96.038515S999.824461 383.964448 910.13795 383.964448z" fill="#FFD200" p-id="3796"></path><path d="M910.13795 352.014813c-89.686511 0-160.03259 42.188686-160.032589 96.038515S820.45144 543.997037 910.13795 543.997037s160.03259-42.188686 160.03259-96.038515-70.346079-95.943709-160.03259-95.943709z" fill="#FF9600" p-id="3797"></path><path d="M910.13795 319.970373c-89.686511 0-160.03259 42.188686-160.032589 96.038515S820.45144 511.952597 910.13795 511.952597s160.03259-42.188686 160.03259-96.038515-70.346079-95.943709-160.03259-95.943709z" fill="#FFD200" p-id="3798"></path><path d="M910.13795 288.020739c-89.686511 0-160.03259 42.188686-160.032589 96.038515S820.45144 480.002963 910.13795 480.002963s160.03259-42.188686 160.03259-96.038515-70.346079-95.943709-160.03259-95.943709z" fill="#FF9600" p-id="3799"></path><path d="M910.13795 255.976298c-89.686511 0-160.03259 42.188686-160.032589 96.038515S820.45144 447.958522 910.13795 447.958522s160.03259-42.188686 160.03259-96.038515S999.824461 255.976298 910.13795 255.976298z" fill="#FFD200" p-id="3800"></path><path d="M750.200167 480.002963c0 53.849829 70.251273 96.038515 160.032589 96.038515V383.964448c-89.781317 0-160.03259 42.188686-160.032589 96.038515z" fill="#FF9600" p-id="3801"></path><path d="M750.200167 447.958522c0 53.849829 70.251273 96.038515 160.032589 96.038515V352.014813c-89.781317 0-160.03259 42.09388-160.032589 95.943709z" fill="#DF8328" p-id="3802"></path><path d="M750.200167 416.008888c0 53.849829 70.251273 96.038515 160.032589 96.038515V319.970373c-89.781317 0-160.03259 42.188686-160.032589 96.038515z" fill="#FF9600" p-id="3803"></path><path d="M750.200167 383.964448c0 53.849829 70.251273 96.038515 160.032589 96.038515V288.020739c-89.781317 0-160.03259 42.09388-160.032589 95.943709z" fill="#DF8328" p-id="3804"></path><path d="M750.200167 352.014813c0 53.849829 70.251273 96.038515 160.032589 96.038515V255.976298c-89.781317 0-160.03259 42.188686-160.032589 96.038515z" fill="#FF9600" p-id="3805"></path><path d="M910.13795 224.026664c-89.686511 0-160.03259 42.188686-160.032589 96.038515S820.45144 416.008888 910.13795 416.008888s160.03259-42.188686 160.03259-96.038515-70.346079-95.943709-160.03259-95.943709z" fill="#FF9600" p-id="3806"></path><path d="M750.200167 319.970373c0 53.849829 70.251273 96.038515 160.032589 96.038515V224.026664c-89.781317 0-160.03259 42.09388-160.032589 95.943709z" fill="#DF8328" p-id="3807"></path><path d="M910.13795 191.982224c-89.686511 0-160.03259 42.188686-160.032589 96.038515S820.45144 383.964448 910.13795 383.964448s160.03259-42.188686 160.03259-96.038515-70.346079-95.943709-160.03259-95.943709z" fill="#FFD200" p-id="3808"></path><path d="M910.13795 160.03259c-89.686511 0-160.03259 42.188686-160.032589 96.038515S820.45144 352.014813 910.13795 352.014813s160.03259-42.188686 160.03259-96.038515-70.346079-95.943709-160.03259-95.943708z" fill="#FF9600" p-id="3809"></path><path d="M750.200167 288.020739c0 53.849829 70.251273 96.038515 160.032589 96.038515V191.982224c-89.781317 0-160.03259 42.188686-160.032589 96.038515z" fill="#FF9600" p-id="3810"></path><path d="M750.200167 255.976298c0 53.849829 70.251273 96.038515 160.032589 96.038515V160.03259c-89.781317 0-160.03259 42.09388-160.032589 95.943708z" fill="#DF8328" p-id="3811"></path><path d="M910.13795 127.988149c-89.686511 0-160.03259 42.188686-160.032589 96.038515S820.45144 319.970373 910.13795 319.970373s160.03259-42.188686 160.03259-96.038515S999.824461 127.988149 910.13795 127.988149z" fill="#FFD200" p-id="3812"></path><path d="M910.13795 96.038515c-89.686511 0-160.03259 42.188686-160.032589 96.038515S820.45144 288.020739 910.13795 288.020739s160.03259-42.188686 160.03259-96.038515-70.346079-95.943709-160.03259-95.943709z" fill="#FF9600" p-id="3813"></path><path d="M910.13795 63.994075c-89.686511 0-160.03259 42.188686-160.032589 96.038515S820.45144 255.976298 910.13795 255.976298s160.03259-42.188686 160.03259-96.038514S999.824461 63.994075 910.13795 63.994075z" fill="#FFD200" p-id="3814"></path><path d="M750.200167 224.026664c0 53.849829 70.251273 96.038515 160.032589 96.038515V127.988149c-89.781317 0-160.03259 42.188686-160.032589 96.038515z" fill="#FF9600" p-id="3815"></path><path d="M750.200167 191.982224c0 53.849829 70.251273 96.038515 160.032589 96.038515V96.038515c-89.781317 0-160.03259 42.09388-160.032589 95.943709z" fill="#DF8328" p-id="3816"></path><path d="M750.200167 160.03259c0 53.849829 70.251273 96.038515 160.032589 96.038515V63.994075c-89.781317 0-160.03259 42.188686-160.032589 96.038515z" fill="#FF9600" p-id="3817"></path><path d="M910.13795 32.04444c-89.686511 0-160.03259 42.188686-160.032589 96.038515S820.45144 224.026664 910.13795 224.026664s160.03259-42.188686 160.03259-96.038515S999.824461 32.04444 910.13795 32.04444z" fill="#FF9600" p-id="3818"></path><path d="M750.200167 127.988149c0 53.849829 70.251273 96.038515 160.032589 96.038515V32.04444c-89.781317 0-160.03259 42.09388-160.032589 95.943709z" fill="#DF8328" p-id="3819"></path><path d="M910.13795 0c-89.686511 0-160.03259 42.188686-160.032589 96.038515S820.45144 191.982224 910.13795 191.982224s160.03259-42.188686 160.03259-96.038515S999.824461 0 910.13795 0z" fill="#FFD200" p-id="3820"></path><path d="M910.13795 160.03259c-64.847329 0-111.965929-26.924914-111.965929-63.994075S845.290621 32.04444 910.13795 32.04444s111.965929 26.924914 111.965929 63.994075-47.1186 63.994075-111.965929 63.994075z m0-96.038515c-49.583557 0-80.016295 18.676789-80.016295 32.04444S860.554393 127.988149 910.13795 127.988149s80.016295-18.676789 80.016295-32.04444-30.432738-31.949634-80.016295-31.949634z" fill="#FFEF43" p-id="3821"></path><path d="M1198.158689 831.92297c-89.686511 0-160.03259 42.188686-160.03259 96.038515s70.251273 96.038515 160.03259 96.038515 160.03259-42.188686 160.03259-96.038515-70.346079-96.038515-160.03259-96.038515z" fill="#FFD200" p-id="3822"></path><path d="M1198.158689 799.973336c-89.686511 0-160.03259 42.188686-160.03259 96.038515s70.251273 96.038515 160.03259 96.038515 160.03259-42.188686 160.03259-96.038515-70.346079-96.038515-160.03259-96.038515z" fill="#FF9600" p-id="3823"></path><path d="M1038.126099 927.961485c0 53.849829 70.251273 96.038515 160.03259 96.038515V831.92297c-89.781317 0-160.03259 42.188686-160.03259 96.038515z" fill="#FF9600" p-id="3824"></path><path d="M1038.126099 895.917045c0 53.849829 70.251273 96.038515 160.03259 96.038515V799.973336c-89.781317 0-160.03259 42.09388-160.03259 95.943709z" fill="#DF8328" p-id="3825"></path><path d="M1038.126099 863.96741c0 53.849829 70.251273 96.038515 160.03259 96.038515V767.928895c-89.781317 0-160.03259 42.188686-160.03259 96.038515z" fill="#FF9600" p-id="3826"></path><path d="M1198.158689 767.928895c-89.686511 0-160.03259 42.188686-160.03259 96.038515s70.251273 96.038515 160.03259 96.038515 160.03259-42.188686 160.03259-96.038515S1287.8452 767.928895 1198.158689 767.928895z" fill="#FFD200" p-id="3827"></path><path d="M1198.158689 735.979261c-89.686511 0-160.03259 42.188686-160.03259 96.038515s70.251273 96.038515 160.03259 96.038515 160.03259-42.188686 160.03259-96.038515-70.346079-96.038515-160.03259-96.038515z" fill="#FF9600" p-id="3828"></path><path d="M1198.158689 703.934821c-89.686511 0-160.03259 42.188686-160.03259 96.038515S1108.377372 895.917045 1198.158689 895.917045s160.03259-42.188686 160.03259-96.038515-70.346079-95.943709-160.03259-95.943709z" fill="#FFD200" p-id="3829"></path><path d="M1198.158689 671.985187c-89.686511 0-160.03259 42.188686-160.03259 96.038515s70.251273 96.038515 160.03259 96.038514 160.03259-42.188686 160.03259-96.038514-70.346079-96.038515-160.03259-96.038515z" fill="#FF9600" p-id="3830"></path><path d="M1198.158689 639.940746c-89.686511 0-160.03259 42.188686-160.03259 96.038515s70.251273 96.038515 160.03259 96.038515 160.03259-42.188686 160.03259-96.038515S1287.8452 639.940746 1198.158689 639.940746z" fill="#FFD200" p-id="3831"></path><path d="M1038.126099 863.96741c0 53.849829 70.251273 96.038515 160.03259 96.038515V767.928895c-89.781317 0-160.03259 42.188686-160.03259 96.038515z" fill="#FF9600" p-id="3832"></path><path d="M1038.126099 831.92297c0 53.849829 70.251273 96.038515 160.03259 96.038515V735.979261c-89.781317 0-160.03259 42.09388-160.03259 95.943709z" fill="#DF8328" p-id="3833"></path><path d="M1038.126099 799.973336c0 53.849829 70.251273 96.038515 160.03259 96.038515V703.934821c-89.781317 0-160.03259 42.188686-160.03259 96.038515z" fill="#FF9600" p-id="3834"></path><path d="M1038.126099 767.928895c0 53.849829 70.251273 96.038515 160.03259 96.038515V671.985187c-89.781317 0-160.03259 42.09388-160.03259 95.943708z" fill="#DF8328" p-id="3835"></path><path d="M1038.126099 735.979261c0 53.849829 70.251273 96.038515 160.03259 96.038515V639.940746c-89.781317 0-160.03259 42.188686-160.03259 96.038515z" fill="#FF9600" p-id="3836"></path><path d="M1198.158689 607.991112c-89.686511 0-160.03259 42.188686-160.03259 96.038515s70.251273 96.038515 160.03259 96.038515 160.03259-42.188686 160.03259-96.038515-70.346079-96.038515-160.03259-96.038515z" fill="#FF9600" p-id="3837"></path><path d="M1038.126099 703.934821c0 53.849829 70.251273 96.038515 160.03259 96.038515V607.991112c-89.781317 0-160.03259 42.09388-160.03259 95.943709z" fill="#DF8328" p-id="3838"></path><path d="M1198.158689 575.946672c-89.686511 0-160.03259 42.188686-160.03259 96.038515S1108.377372 767.928895 1198.158689 767.928895s160.03259-42.188686 160.03259-96.038514-70.346079-95.943709-160.03259-95.943709z" fill="#FFD200" p-id="3839"></path><path d="M1198.158689 543.997037c-89.686511 0-160.03259 42.188686-160.03259 96.038515s70.251273 96.038515 160.03259 96.038515 160.03259-42.188686 160.03259-96.038515-70.346079-96.038515-160.03259-96.038515z" fill="#FF9600" p-id="3840"></path><path d="M1038.126099 671.985187c0 53.849829 70.251273 96.038515 160.03259 96.038515V575.946672c-89.781317 0-160.03259 42.188686-160.03259 96.038515z" fill="#FF9600" p-id="3841"></path><path d="M1038.126099 639.940746c0 53.849829 70.251273 96.038515 160.03259 96.038515V543.997037c-89.781317 0-160.03259 42.09388-160.03259 95.943709z" fill="#DF8328" p-id="3842"></path><path d="M1198.158689 511.952597c-89.686511 0-160.03259 42.188686-160.03259 96.038515s70.251273 96.038515 160.03259 96.038515 160.03259-42.188686 160.03259-96.038515S1287.8452 511.952597 1198.158689 511.952597z" fill="#FFD200" p-id="3843"></path><path d="M1198.158689 480.002963c-89.686511 0-160.03259 42.188686-160.03259 96.038515s70.251273 96.038515 160.03259 96.038515 160.03259-42.188686 160.03259-96.038515-70.346079-96.038515-160.03259-96.038515z" fill="#FF9600" p-id="3844"></path><path d="M1198.158689 447.958522c-89.686511 0-160.03259 42.188686-160.03259 96.038515S1108.377372 639.940746 1198.158689 639.940746s160.03259-42.188686 160.03259-96.038515-70.346079-95.943709-160.03259-95.943709z" fill="#FFD200" p-id="3845"></path><path d="M1038.126099 607.991112c0 53.849829 70.251273 96.038515 160.03259 96.038515V511.952597c-89.781317 0-160.03259 42.188686-160.03259 96.038515z" fill="#FF9600" p-id="3846"></path><path d="M1038.126099 575.946672c0 53.849829 70.251273 96.038515 160.03259 96.038515V480.002963c-89.781317 0-160.03259 42.09388-160.03259 95.943709z" fill="#DF8328" p-id="3847"></path><path d="M1038.126099 543.997037c0 53.849829 70.251273 96.038515 160.03259 96.038515V447.958522c-89.781317 0-160.03259 42.188686-160.03259 96.038515z" fill="#FF9600" p-id="3848"></path><path d="M1198.158689 416.008888c-89.686511 0-160.03259 42.188686-160.03259 96.038515s70.251273 96.038515 160.03259 96.038515 160.03259-42.188686 160.03259-96.038515-70.346079-96.038515-160.03259-96.038515z" fill="#FF9600" p-id="3849"></path><path d="M1038.126099 511.952597c0 53.849829 70.251273 96.038515 160.03259 96.038515V416.008888c-89.781317 0-160.03259 42.09388-160.03259 95.943709z" fill="#DF8328" p-id="3850"></path><path d="M1198.158689 383.964448c-89.686511 0-160.03259 42.188686-160.03259 96.038515s70.251273 96.038515 160.03259 96.038515 160.03259-42.188686 160.03259-96.038515S1287.8452 383.964448 1198.158689 383.964448z" fill="#FFD200" p-id="3851"></path><path d="M1198.158689 543.997037c-64.847329 0-111.965929-26.924914-111.965929-63.994074s47.1186-63.994075 111.965929-63.994075 111.965929 26.924914 111.965929 63.994075-47.1186 63.994075-111.965929 63.994074z m0-96.038515c-49.583557 0-80.016295 18.676789-80.016295 32.044441 0 13.367651 30.432738 32.04444 80.016295 32.04444s80.016295-18.676789 80.016295-32.04444c-0.094806-13.367651-30.527544-32.04444-80.016295-32.044441z" fill="#FFEF43" p-id="3852"></path><path d="M622.212017 831.92297c-89.686511 0-160.03259 42.188686-160.032589 96.038515S532.430701 1023.905194 622.212017 1023.905194 782.149801 981.716508 782.149801 927.961485s-70.251273-96.038515-159.937784-96.038515z" fill="#FFD200" p-id="3853"></path><path d="M622.212017 799.973336c-89.686511 0-160.03259 42.188686-160.032589 96.038515s70.251273 96.038515 160.032589 96.038515S782.149801 949.766873 782.149801 895.917045s-70.251273-95.943709-159.937784-95.943709z" fill="#FF9600" p-id="3854"></path><path d="M622.212017 767.928895c-89.686511 0-160.03259 42.188686-160.032589 96.038515s70.251273 96.038515 160.032589 96.038515S782.149801 917.722433 782.149801 863.96741 711.898528 767.928895 622.212017 767.928895z" fill="#FFD200" p-id="3855"></path><path d="M622.212017 735.979261c-89.686511 0-160.03259 42.188686-160.032589 96.038515s70.251273 96.038515 160.032589 96.038515S782.149801 885.772799 782.149801 831.92297s-70.251273-95.943709-159.937784-95.943709z" fill="#FF9600" p-id="3856"></path><path d="M622.212017 703.934821c-89.686511 0-160.03259 42.188686-160.032589 96.038515S532.430701 895.917045 622.212017 895.917045 782.149801 853.728358 782.149801 799.973336s-70.251273-96.038515-159.937784-96.038515z" fill="#FFD200" p-id="3857"></path><path d="M622.212017 671.985187c-89.686511 0-160.03259 42.188686-160.032589 96.038515s70.251273 96.038515 160.032589 96.038514S782.149801 821.778724 782.149801 767.928895s-70.251273-95.943709-159.937784-95.943708z" fill="#FF9600" p-id="3858"></path><path d="M462.179428 927.961485c0 53.849829 70.251273 96.038515 160.032589 96.038515V831.92297c-89.781317 0-160.03259 42.188686-160.032589 96.038515z" fill="#FF9600" p-id="3859"></path><path d="M462.179428 895.917045c0 53.849829 70.251273 96.038515 160.032589 96.038515V799.973336c-89.781317 0-160.03259 42.09388-160.032589 95.943709z" fill="#DF8328" p-id="3860"></path><path d="M462.179428 863.96741c0 53.849829 70.251273 96.038515 160.032589 96.038515V767.928895c-89.781317 0-160.03259 42.188686-160.032589 96.038515z" fill="#FF9600" p-id="3861"></path><path d="M462.179428 863.96741c0 53.849829 70.251273 96.038515 160.032589 96.038515V767.928895c-89.781317 0-160.03259 42.188686-160.032589 96.038515z" fill="#FF9600" p-id="3862"></path><path d="M462.179428 831.92297c0 53.849829 70.251273 96.038515 160.032589 96.038515V735.979261c-89.781317 0-160.03259 42.09388-160.032589 95.943709z" fill="#DF8328" p-id="3863"></path><path d="M462.179428 799.973336c0 53.849829 70.251273 96.038515 160.032589 96.038515V703.934821c-89.781317 0-160.03259 42.188686-160.032589 96.038515z" fill="#FF9600" p-id="3864"></path><path d="M462.179428 767.928895c0 53.849829 70.251273 96.038515 160.032589 96.038515V671.985187c-89.781317 0-160.03259 42.09388-160.032589 95.943708z" fill="#DF8328" p-id="3865"></path><path d="M462.179428 735.979261c0 53.849829 70.251273 96.038515 160.032589 96.038515V639.940746c-89.781317 0-160.03259 42.188686-160.032589 96.038515z" fill="#FF9600" p-id="3866"></path><path d="M622.212017 639.940746c-89.686511 0-160.03259 42.188686-160.032589 96.038515s70.251273 96.038515 160.032589 96.038515S782.149801 789.734284 782.149801 735.979261 711.898528 639.940746 622.212017 639.940746z" fill="#FFD200" p-id="3867"></path><path d="M622.212017 607.991112c-89.686511 0-160.03259 42.188686-160.032589 96.038515s70.251273 96.038515 160.032589 96.038515S782.149801 757.78465 782.149801 703.934821s-70.251273-95.943709-159.937784-95.943709z" fill="#FF9600" p-id="3868"></path><path d="M622.212017 575.946672c-89.686511 0-160.03259 42.188686-160.032589 96.038515S532.430701 767.928895 622.212017 767.928895 782.149801 725.740209 782.149801 671.985187s-70.251273-96.038515-159.937784-96.038515z" fill="#FFD200" p-id="3869"></path><path d="M622.212017 543.997037c-89.686511 0-160.03259 42.188686-160.032589 96.038515s70.251273 96.038515 160.032589 96.038515S782.149801 693.790575 782.149801 639.940746s-70.251273-95.943709-159.937784-95.943709z" fill="#FF9600" p-id="3870"></path><path d="M622.212017 511.952597c-89.686511 0-160.03259 42.188686-160.032589 96.038515s70.251273 96.038515 160.032589 96.038515S782.149801 661.746135 782.149801 607.991112 711.898528 511.952597 622.212017 511.952597z" fill="#FFD200" p-id="3871"></path><path d="M462.179428 735.979261c0 53.849829 70.251273 96.038515 160.032589 96.038515V639.940746c-89.781317 0-160.03259 42.188686-160.032589 96.038515z" fill="#FF9600" p-id="3872"></path><path d="M462.179428 703.934821c0 53.849829 70.251273 96.038515 160.032589 96.038515V607.991112c-89.781317 0-160.03259 42.09388-160.032589 95.943709z" fill="#DF8328" p-id="3873"></path><path d="M462.179428 671.985187c0 53.849829 70.251273 96.038515 160.032589 96.038515V575.946672c-89.781317 0-160.03259 42.188686-160.032589 96.038515z" fill="#FF9600" p-id="3874"></path><path d="M462.179428 639.940746c0 53.849829 70.251273 96.038515 160.032589 96.038515V543.997037c-89.781317 0-160.03259 42.09388-160.032589 95.943709z" fill="#DF8328" p-id="3875"></path><path d="M462.179428 607.991112c0 53.849829 70.251273 96.038515 160.032589 96.038515V511.952597c-89.781317 0-160.03259 42.188686-160.032589 96.038515z" fill="#FF9600" p-id="3876"></path><path d="M622.212017 480.002963c-89.686511 0-160.03259 42.188686-160.032589 96.038515s70.251273 96.038515 160.032589 96.038515S782.149801 629.7965 782.149801 575.946672s-70.251273-95.943709-159.937784-95.943709z" fill="#FF9600" p-id="3877"></path><path d="M462.179428 575.946672c0 53.849829 70.251273 96.038515 160.032589 96.038515V480.002963c-89.781317 0-160.03259 42.09388-160.032589 95.943709z" fill="#DF8328" p-id="3878"></path><path d="M622.212017 447.958522c-89.686511 0-160.03259 42.188686-160.032589 96.038515S532.430701 639.940746 622.212017 639.940746 782.149801 597.75206 782.149801 543.997037s-70.251273-96.038515-159.937784-96.038515z" fill="#FFD200" p-id="3879"></path><path d="M622.212017 416.008888c-89.686511 0-160.03259 42.188686-160.032589 96.038515s70.251273 96.038515 160.032589 96.038515S782.149801 565.802426 782.149801 511.952597s-70.251273-95.943709-159.937784-95.943709z" fill="#FF9600" p-id="3880"></path><path d="M462.179428 543.997037c0 53.849829 70.251273 96.038515 160.032589 96.038515V447.958522c-89.781317 0-160.03259 42.188686-160.032589 96.038515z" fill="#FF9600" p-id="3881"></path><path d="M462.179428 511.952597c0 53.849829 70.251273 96.038515 160.032589 96.038515V416.008888c-89.781317 0-160.03259 42.09388-160.032589 95.943709z" fill="#DF8328" p-id="3882"></path><path d="M622.212017 383.964448c-89.686511 0-160.03259 42.188686-160.032589 96.038515s70.251273 96.038515 160.032589 96.038515S782.149801 533.757985 782.149801 480.002963 711.898528 383.964448 622.212017 383.964448z" fill="#FFD200" p-id="3883"></path><path d="M622.212017 352.014813c-89.686511 0-160.03259 42.188686-160.032589 96.038515s70.251273 96.038515 160.032589 96.038515S782.149801 501.808351 782.149801 447.958522s-70.251273-95.943709-159.937784-95.943709z" fill="#FF9600" p-id="3884"></path><path d="M622.212017 319.970373c-89.686511 0-160.03259 42.188686-160.032589 96.038515S532.430701 511.952597 622.212017 511.952597 782.149801 469.763911 782.149801 416.008888s-70.251273-96.038515-159.937784-96.038515z" fill="#FFD200" p-id="3885"></path><path d="M462.179428 480.002963c0 53.849829 70.251273 96.038515 160.032589 96.038515V383.964448c-89.781317 0-160.03259 42.188686-160.032589 96.038515z" fill="#FF9600" p-id="3886"></path><path d="M462.179428 447.958522c0 53.849829 70.251273 96.038515 160.032589 96.038515V352.014813c-89.781317 0-160.03259 42.09388-160.032589 95.943709z" fill="#DF8328" p-id="3887"></path><path d="M462.179428 416.008888c0 53.849829 70.251273 96.038515 160.032589 96.038515V319.970373c-89.781317 0-160.03259 42.188686-160.032589 96.038515z" fill="#FF9600" p-id="3888"></path><path d="M622.212017 288.020739c-89.686511 0-160.03259 42.188686-160.032589 96.038515s70.251273 96.038515 160.032589 96.038515S782.149801 437.814276 782.149801 383.964448s-70.251273-95.943709-159.937784-95.943709z" fill="#FF9600" p-id="3889"></path><path d="M462.179428 383.964448c0 53.849829 70.251273 96.038515 160.032589 96.038515V288.020739c-89.781317 0-160.03259 42.09388-160.032589 95.943709z" fill="#DF8328" p-id="3890"></path><path d="M622.212017 255.976298c-89.686511 0-160.03259 42.188686-160.032589 96.038515s70.251273 96.038515 160.032589 96.038515S782.149801 405.769836 782.149801 352.014813 711.898528 255.976298 622.212017 255.976298z" fill="#FFD200" p-id="3891"></path><path d="M622.212017 416.008888c-64.847329 0-111.965929-26.924914-111.965929-63.994075s47.1186-63.994075 111.965929-63.994074 111.965929 26.924914 111.965929 63.994074-47.1186 63.994075-111.965929 63.994075z m0-96.038515c-49.583557 0-80.016295 18.676789-80.016294 32.04444S572.62846 383.964448 622.212017 383.964448c49.583557 0 80.016295-18.676789 80.016295-32.044441s-30.527544-31.949634-80.016295-31.949634z" fill="#FFEF43" p-id="3892"></path></svg>