<?xml version="1.0" standalone="no"?><!DOCTYPE svg PUBLIC "-//W3C//DTD SVG 1.1//EN" "http://www.w3.org/Graphics/SVG/1.1/DTD/svg11.dtd"><svg t="1744636983880" class="icon" viewBox="0 0 1024 1024" version="1.1" xmlns="http://www.w3.org/2000/svg" p-id="2010" xmlns:xlink="http://www.w3.org/1999/xlink" width="200" height="200"><path d="M891.586207 361.931034c0-32.026483-24.452414-58.050207-55.649104-61.175172A61.616552 61.616552 0 0 0 776.827586 256 61.793103 61.793103 0 0 0 715.034483 317.793103h-141.24138v-141.241379a61.793103 61.793103 0 0 0 61.793104-61.793103 61.616552 61.616552 0 0 0-53.777655-60.980966A61.616552 61.616552 0 0 0 520.827586 0a61.616552 61.616552 0 0 0-60.980965 53.777655A61.616552 61.616552 0 0 0 406.068966 114.758621 61.793103 61.793103 0 0 0 467.862069 176.551724v141.241379h-158.896552a61.793103 61.793103 0 0 0-61.793103-61.793103 61.616552 61.616552 0 0 0-59.109517 44.755862C156.866207 303.880828 132.413793 329.904552 132.413793 361.931034a61.616552 61.616552 0 0 0 53.053793 60.910345c0 0.300138-0.088276 0.582621-0.088276 0.882759a61.793103 61.793103 0 1 0 123.586207 0h158.896552v423.724138a61.793103 61.793103 0 0 0-61.793103 61.793103 61.616552 61.616552 0 0 0 53.777655 60.980966A61.616552 61.616552 0 0 0 520.827586 1024a61.616552 61.616552 0 0 0 60.980966-53.777655A61.616552 61.616552 0 0 0 635.586207 909.241379 61.793103 61.793103 0 0 0 573.793103 847.448276V423.724138h141.24138a61.793103 61.793103 0 1 0 123.586207 0c0-0.300138-0.088276-0.582621-0.088276-0.882759A61.616552 61.616552 0 0 0 891.586207 361.931034" fill="#FFBE40" p-id="2011"></path></svg>