<?xml version="1.0" standalone="no"?><!DOCTYPE svg PUBLIC "-//W3C//DTD SVG 1.1//EN" "http://www.w3.org/Graphics/SVG/1.1/DTD/svg11.dtd"><svg t="1744555601974" class="icon" viewBox="0 0 1167 1024" version="1.1" xmlns="http://www.w3.org/2000/svg" p-id="21282" xmlns:xlink="http://www.w3.org/1999/xlink" width="227.9296875" height="200"><path d="M238.467 841.532h707.92c18.894 0-11.637-21.576-7.821-40.47L745.857 487.44c-45.343-79.35-30.228-174.458-75.798-257.511-18.893-26.45-34.008-56.68-49.122-86.908 49.122-34.007 60.458-79.35 30.229-117.137l-3.779-3.778c-30.229-26.45-75.572-30.229-105.99 0a76.743 76.743 0 0 0-22.671 56.679 74.59 74.59 0 0 0 45.343 68.015c-64.236 117.136-124.92 230.305-189.308 343.55l-3.778 3.778a14.283 14.283 0 0 1-22.672 3.779c-18.893-11.336-41.564-26.45-60.457-37.786-52.9-30.229-105.99-64.236-162.782-98.244 3.778-3.778 3.778-7.557 7.557-7.557a74.06 74.06 0 0 0 7.557-83.129c-7.557-18.893-22.672-30.229-41.565-37.786-41.564-11.336-83.129 11.336-94.465 49.122L0.378 293.862v26.45c3.778 7.557 7.557 11.336 11.336 22.671a86.19 86.19 0 0 0 71.793 37.786c7.557 34.008 18.893 64.236 26.45 94.465 30.229 117.137 64.236 230.306 98.244 343.55 3.778 18.969 11.336 22.748 30.266 22.748z m688.99 71.793H594.336c-109.769 0-219.575-3.779-329.343 0a64.236 64.236 0 0 0-37.786 11.336c-18.893 11.335-26.45 37.786-18.893 60.457a56.943 56.943 0 0 0 52.9 37.786H938.83c26.45-3.778 45.344-30.229 45.344-56.679 0.075-30.304-26.413-52.976-56.717-52.976z" fill="#F5AB1A" p-id="21283"></path><path d="M597.66 0a72.662 72.662 0 0 1 51.087 22.672l3.78 3.778c29.17 38.05 18.25 83.734-29.172 118.006 14.586 30.455 29.171 60.91 47.422 87.55 43.794 83.734 87.55 167.505 131.344 247.422 10.958 18.893 18.25 22.672 32.836 11.336 69.3-41.867 134.971-87.55 204.309-129.417l10.957-7.557c-14.585-11.336-21.878-30.455-25.543-49.5a74.967 74.967 0 0 1 65.672-79.955c32.836-3.778 62.007 18.893 72.965 53.279 0 3.778 3.778 7.557 3.778 11.335v26.64c-10.957 38.05-36.463 60.91-76.63 60.91 0 3.78-3.778 7.558-3.778 15.115l-120.575 426.83c-3.779 18.893-10.958 22.672-29.17 22.672H597.66z m3.78 913.59h328.737a54.034 54.034 0 0 1 54.715 53.278c0 26.639-18.251 53.278-43.794 57.094H605.18z" fill="#FFC85D" p-id="21284"></path></svg>