<?xml version="1.0" standalone="no"?><!DOCTYPE svg PUBLIC "-//W3C//DTD SVG 1.1//EN" "http://www.w3.org/Graphics/SVG/1.1/DTD/svg11.dtd"><svg t="1744555502617" class="icon" viewBox="0 0 1024 1024" version="1.1" xmlns="http://www.w3.org/2000/svg" p-id="9581" xmlns:xlink="http://www.w3.org/1999/xlink" width="200" height="200"><path d="M900.096 489.472c10.24-79.872-5.12-146.432-47.104-200.704l-57.344-67.584c-44.032-50.176-103.424-79.872-176.128-88.064-74.752-8.192-147.456 5.12-222.208 41.984-43.008 20.48-82.944 46.08-116.736 75.776-83.968 74.752-135.168 161.792-153.6 261.12s1.024 183.296 60.416 249.856l73.728 67.584c37.888 28.672 80.896 48.128 128 56.32 69.632 17.408 143.36 7.168 220.16-31.744 46.08-20.48 90.112-50.176 132.096-87.04 94.208-83.968 148.48-176.128 158.72-277.504z m-68.608-184.32c36.864 46.08 50.176 104.448 44.032 176.128-9.216 95.232-60.416 183.296-150.528 264.192-86.016 74.752-171.008 116.736-257.024 121.856-70.656 4.096-134.144-15.36-189.44-58.368l-71.68-65.536c-53.248-61.44-71.68-138.24-54.272-231.424 17.408-92.16 65.536-172.032 144.384-240.64s164.864-106.496 257.024-112.64c94.208-7.168 167.936 20.48 220.16 80.896l57.344 65.536z" fill="#857958" p-id="9582"></path><path d="M875.52 481.28c6.144-71.68-7.168-130.048-44.032-176.128l-57.344-65.536c-52.224-60.416-125.952-88.064-220.16-80.896-92.16 6.144-178.176 44.032-257.024 112.64S169.984 419.84 152.576 512c-17.408 93.184 1.024 169.984 54.272 231.424l71.68 65.536c55.296 43.008 118.784 62.464 189.44 58.368 86.016-5.12 171.008-47.104 257.024-121.856 90.112-80.896 141.312-168.96 150.528-264.192zM265.216 781.312l-20.48-21.504c27.648 15.36 60.416 24.576 98.304 27.648 57.344 4.096 117.76-9.216 180.224-37.888 72.704-37.888 117.76-54.272 136.192-52.224 14.336 3.072 17.408 17.408 8.192 44.032-5.12 17.408-21.504 34.816-48.128 52.224-29.696 20.48-65.536 36.864-108.544 51.2-38.912 9.216-78.848 11.264-117.76 5.12-19.456-2.048-45.056-10.24-75.776-26.624l-52.224-41.984zM854.016 389.12c7.168 26.624 7.168 59.392 0 100.352-8.192 41.984-19.456 68.608-33.792 79.872-10.24 9.216-20.48 6.144-30.72-12.288-10.24-22.528-12.288-47.104-7.168-74.752l13.312-62.464c5.12-25.6 5.12-53.248 0-83.968-1.024-17.408 6.144-19.456 22.528-4.096 17.408 14.336 29.696 33.792 35.84 57.344zM543.744 168.96c88.064-9.216 155.648 13.312 199.68 64.512 44.032 51.2 56.32 117.76 35.84 199.68s-67.584 157.696-143.36 224.256c-43.008 37.888-89.088 66.56-137.216 86.016h-1.024c-91.136 44.032-175.104 44.032-252.928 2.048-30.72-16.384-53.248-39.936-66.56-72.704-24.576-46.08-27.648-102.4-11.264-167.936 19.456-86.016 65.536-161.792 138.24-226.304 74.752-65.536 153.6-101.376 238.592-109.568z" fill="#E0A628" p-id="9583"></path><path d="M244.736 759.808l20.48 21.504 52.224 41.984c30.72 16.384 56.32 24.576 75.776 26.624 38.912 6.144 78.848 4.096 117.76-5.12 43.008-14.336 78.848-30.72 108.544-51.2 26.624-17.408 43.008-34.816 48.128-52.224 9.216-26.624 6.144-40.96-8.192-44.032-18.432-2.048-63.488 14.336-136.192 52.224-62.464 28.672-122.88 41.984-180.224 37.888-37.888-3.072-70.656-12.288-98.304-27.648z m142.336 77.824c-28.672-15.36-33.792-27.648-14.336-35.84 31.744-14.336 58.368-14.336 78.848 0 20.48 13.312 21.504 26.624 0 37.888-22.528 10.24-44.032 8.192-64.512-2.048z" fill="#F3BE00" p-id="9584"></path><path d="M372.736 801.792c-19.456 8.192-14.336 20.48 14.336 35.84 20.48 10.24 41.984 12.288 64.512 2.048 21.504-11.264 20.48-24.576 0-37.888-20.48-14.336-47.104-14.336-78.848 0z" fill="#FFE200" p-id="9585"></path><path d="M854.016 489.472c7.168-40.96 7.168-73.728 0-100.352-6.144-23.552-18.432-43.008-35.84-57.344-16.384-15.36-23.552-13.312-22.528 4.096 5.12 30.72 5.12 58.368 0 83.968l-13.312 62.464c-5.12 27.648-3.072 52.224 7.168 74.752 10.24 18.432 20.48 21.504 30.72 12.288 14.336-11.264 25.6-37.888 33.792-79.872z" fill="#F3BE00" p-id="9586"></path><path d="M743.424 233.472c-44.032-51.2-111.616-73.728-199.68-64.512-84.992 8.192-163.84 44.032-238.592 109.568-72.704 64.512-118.784 140.288-138.24 226.304-16.384 65.536-13.312 121.856 11.264 167.936-5.12-10.24-9.216-20.48-11.264-32.768-13.312-39.936-13.312-74.752-3.072-106.496 8.192-18.432 19.456-27.648 34.816-28.672 15.36-3.072 22.528 11.264 22.528 43.008-1.024 43.008 16.384 78.848 52.224 109.568 40.96 32.768 90.112 43.008 147.456 27.648 59.392-15.36 94.208-14.336 104.448 6.144 13.312 20.48 3.072 37.888-26.624 52.224 48.128-19.456 94.208-48.128 137.216-86.016 75.776-66.56 122.88-142.336 143.36-224.256s8.192-148.48-35.84-199.68zM665.6 285.696c31.744 38.912 41.984 88.064 27.648 149.504-16.384 61.44-52.224 115.712-104.448 162.816-56.32 49.152-115.712 77.824-178.176 84.992-63.488 8.192-111.616-7.168-145.408-46.08-32.768-36.864-40.96-86.016-27.648-149.504 15.36-63.488 50.176-118.784 102.4-166.912 55.296-48.128 114.688-74.752 179.2-80.896 63.488-6.144 111.616 9.216 146.432 46.08z" fill="#F6D100" p-id="9587"></path><path d="M693.248 435.2c14.336-61.44 4.096-110.592-27.648-149.504-34.816-36.864-82.944-52.224-146.432-46.08-64.512 6.144-123.904 32.768-179.2 80.896-52.224 48.128-87.04 103.424-102.4 166.912-13.312 63.488-5.12 112.64 27.648 149.504 33.792 38.912 81.92 54.272 145.408 46.08 62.464-7.168 121.856-35.84 178.176-84.992 52.224-47.104 88.064-101.376 104.448-162.816z m-47.104-100.352c27.648 30.72 34.816 70.656 23.552 120.832-13.312 52.224-43.008 97.28-88.064 137.216-44.032 39.936-93.184 62.464-144.384 68.608-53.248 6.144-93.184-6.144-119.808-34.816-28.672-32.768-35.84-74.752-25.6-126.976 13.312-51.2 41.984-97.28 87.04-138.24 44.032-38.912 93.184-60.416 146.432-64.512 53.248-6.144 93.184 7.168 120.832 37.888z" fill="#E3B627" p-id="9588"></path><path d="M669.696 455.68c11.264-50.176 4.096-90.112-23.552-120.832-27.648-30.72-67.584-44.032-120.832-37.888-53.248 4.096-102.4 25.6-146.432 64.512-45.056 40.96-73.728 87.04-87.04 138.24-10.24 52.224-3.072 94.208 25.6 126.976 26.624 28.672 66.56 40.96 119.808 34.816 51.2-6.144 100.352-28.672 144.384-68.608 45.056-39.936 74.752-84.992 88.064-137.216zM460.8 340.992c34.816 1.024 55.296 21.504 60.416 60.416 8.192 38.912-8.192 91.136-49.152 155.648-37.888 62.464-68.608 88.064-92.16 76.8-36.864-16.384-61.44-46.08-72.704-88.064-13.312-52.224 5.12-106.496 54.272-158.72 32.768-31.744 65.536-47.104 99.328-46.08z" fill="#F6D100" p-id="9589"></path><path d="M521.216 401.408c-5.12-38.912-25.6-59.392-60.416-60.416-33.792-1.024-66.56 14.336-99.328 46.08-49.152 52.224-67.584 106.496-54.272 158.72 11.264 41.984 35.84 71.68 72.704 88.064 23.552 11.264 54.272-14.336 92.16-76.8 40.96-64.512 57.344-116.736 49.152-155.648z" fill="#FFE200" p-id="9590"></path><path d="M273.408 657.408c-35.84-30.72-53.248-66.56-52.224-109.568 0-31.744-7.168-46.08-22.528-43.008-15.36 1.024-26.624 10.24-34.816 28.672-10.24 31.744-10.24 66.56 3.072 106.496 2.048 12.288 6.144 22.528 11.264 32.768 13.312 32.768 35.84 56.32 66.56 72.704 77.824 41.984 161.792 41.984 252.928-2.048h1.024c29.696-14.336 39.936-31.744 26.624-52.224-10.24-20.48-45.056-21.504-104.448-6.144-57.344 15.36-106.496 5.12-147.456-27.648z m-63.488-51.2c20.48 5.12 30.72 22.528 27.648 51.2-2.048 29.696-10.24 40.96-25.6 35.84-26.624-13.312-39.936-32.768-38.912-60.416 1.024-24.576 13.312-33.792 36.864-26.624z" fill="#FFE200" p-id="9591"></path><path d="M237.568 657.408c3.072-28.672-7.168-46.08-27.648-51.2-23.552-7.168-35.84 2.048-36.864 26.624-1.024 27.648 12.288 47.104 38.912 60.416 15.36 5.12 23.552-6.144 25.6-35.84z" fill="#FFFFFF" p-id="9592"></path></svg>